<?xml version="1.0" standalone="no"?> <!DOCTYPE svg PUBLIC "-//W3C//DTD SVG 1.0//EN" "http://www.w3.org/TR/2001/REC-SVG-20010904/DTD/svg10.dtd" > <svg xmlns="http://www.w3.org/2000/svg" width="100%" height="100%">
<defs >
<font id="dinproblackregular" horiz-adv-x="1183" ><font-face
    font-family="DINPro-Black"
    units-per-em="2048"
    panose-1="2 0 5 3 3 0 0 2 0 4"
    ascent="2132"
    descent="-485"
    alphabetic="0" />
<missing-glyph horiz-adv-x="1185" d="M127 0V1458H1059V0H127ZM348 221H838V1237H348V221Z" />
<glyph unicode=" " glyph-name="space" horiz-adv-x="454" />
<glyph unicode="!" glyph-name="exclam" horiz-adv-x="749" d="M627 1458L537 485H295L205 1458H627ZM588 0H244V330H588V0Z" />
<glyph unicode="&quot;" glyph-name="quotedbl" horiz-adv-x="999" d="M883 979H582V1458H883V979ZM418 979H117V1458H418V979Z" />
<glyph unicode="#" glyph-name="numbersign" horiz-adv-x="1460" d="M1364 844H1194L1167 664H1286V346H1116L1061 0H705L760 346H575L520 0H164L219 346H100V664H270L297 844H178V1161H348L397 1475H754L705 1161H889L938 1475H1294L1245 1161H1364V844ZM838
844H653L627 664H811L838 844Z" />
<glyph unicode="$" glyph-name="dollar" horiz-adv-x="1296" d="M1208 446Q1208 261 1087 145T770 -2V-233H512V-12Q352 -7 230 36T10 180L240 410Q338 311 553 307V578L473 588Q282 612 180 717Q80 820 80 1010Q80 1190 195 1314T512 1464V1651H770V1468Q1029
1453 1186 1296L961 1071Q887 1145 729 1155V899L813 887Q1005 859 1100 766Q1208 661 1208 446ZM856 438Q856 496 827 524Q799 555 729 563V313Q856 338 856 438ZM553 911V1153Q490 1142 458 1105T426 1022Q426 983 455 954Q489 920 553 911Z" />
<glyph unicode="%" glyph-name="percent" horiz-adv-x="1755" d="M1663 272Q1663 179 1619 113T1506 18T1354 -12T1202 17T1089 113T1044 272V467Q1044 605 1133 678T1354 752Q1438 752 1506 723T1618 627T1663 467V272ZM711 991Q711 898 667 832T554 737T401
707Q271 707 182 780T92 991V1186Q92 1324 181 1397T401 1470Q485 1470 553 1441T666 1345T711 1186V991ZM1354 1458L659 0H401L1096 1458H1354ZM473 999V1178Q473 1257 401 1257Q330 1257 330 1178V999Q330 920 401 920Q473 920 473 999ZM1425 281V459Q1425 539
1354 539Q1282 539 1282 459V281Q1282 201 1354 201Q1425 201 1425 281Z" />
<glyph unicode="&amp;" glyph-name="ampersand" horiz-adv-x="1454" d="M1454 0H1032L940 106Q906 81 894 73T845 43T778 14T699 -3T594 -12Q342 -12 221 105T100 442Q100 557 167 650T332 807Q305 837 288 860T246 923T208 1010T195 1108Q195 1273 306 1371T623
1470Q813 1470 921 1369T1030 1104Q1030 1025 995 967T887 854Q821 803 784 778L956 580Q1011 643 1024 791H1339Q1317 496 1169 334L1454 0ZM737 344L510 604Q461 570 443 534T424 444Q424 378 474 335T594 291Q679 291 737 344ZM715 1102Q715 1140 691 1164T623
1188Q530 1188 530 1100Q530 1092 532 1083T538 1067T548 1050T559 1034T573 1018T585 1004T598 991T608 981L657 1016Q715 1056 715 1102Z" />
<glyph unicode="&apos;" glyph-name="quotesingle" horiz-adv-x="536" d="M420 979H117V1458H420V979Z" />
<glyph unicode="(" glyph-name="parenleft" horiz-adv-x="733" d="M633 33L408 -193Q403 -188 374 -159T335 -120T302 -85T265 -44T236 -5T207 39Q147 139 147 334V1124Q147 1319 207 1419Q219 1440 236 1463T265 1501T301 1543T335 1578T373 1616T408 1651L633
1425Q625 1417 610 1402T588 1381T571 1362T552 1340T536 1318T516 1288Q483 1230 483 1112V346Q483 228 516 170Q527 151 537 137T561 108T580 87T606 60T633 33Z" />
<glyph unicode=")" glyph-name="parenright" horiz-adv-x="733" d="M586 334Q586 241 575 170T526 39Q511 14 495 -10T452 -63T414 -104T367 -152T326 -193L100 33Q106 39 118 51T135 67T149 82T163 97T176 111T189 129T202 147T217 170Q250 225 250 346V1112Q250
1233 217 1288Q209 1302 202 1313T185 1335T172 1352T155 1370T140 1386T121 1405T100 1425L326 1651Q335 1642 360 1617T398 1579T432 1543T467 1502T497 1463T526 1419Q563 1359 574 1288T586 1124V334Z" />
<glyph unicode="*" glyph-name="asterisk" horiz-adv-x="1036" d="M940 928L825 729L623 860L633 618H403L414 860L211 729L96 928L311 1038L96 1149L211 1348L414 1217L403 1458H633L623 1217L825 1348L940 1149L725 1038L940 928Z" />
<glyph unicode="+" glyph-name="plus" horiz-adv-x="1138" d="M1038 422H727V111H412V422H100V737H412V1049H727V737H1038V422Z" />
<glyph unicode="," glyph-name="comma" horiz-adv-x="589" d="M473 -102L117 -365V356H473V-102Z" />
<glyph unicode="-" glyph-name="hyphen" horiz-adv-x="872" d="M772 446H100V762H772V446Z" />
<glyph unicode="." glyph-name="period" horiz-adv-x="602" d="M485 0H117V369H485V0Z" />
<glyph unicode="/" glyph-name="slash" horiz-adv-x="882" d="M895 1610L311 -152H0L584 1610H895Z" />
<glyph unicode="0" glyph-name="zero" horiz-adv-x="1138" d="M1038 442Q1038 333 999 245T894 102T745 17T569 -12T394 17T245 101T139 245T100 442V1016Q100 1125 139 1213T244 1356T394 1441T569 1470T744 1441T894 1357T999 1213T1038 1016V442ZM702 440V1016Q702
1089 664 1128T569 1167T474 1128T436 1016V440Q436 367 474 329T569 291Q627 291 664 329T702 440Z" />
<glyph unicode="1" glyph-name="one" horiz-adv-x="1138" d="M831 0H496V1100L184 829V1188L496 1458H831V0Z" />
<glyph unicode="2" glyph-name="two" horiz-adv-x="1138" d="M1047 0H109V303L637 877Q678 921 694 954T711 1032Q711 1094 677 1130T580 1167Q524 1167 484 1135T444 1026H109Q109 1165 174 1267T345 1420T580 1470Q786 1470 916 1352T1047 1030Q1047 923 1006
850T866 672L518 303H1047V0Z" />
<glyph unicode="3" glyph-name="three" horiz-adv-x="1138" d="M1057 436Q1057 325 1018 238T910 97T755 16T571 -12Q477 -12 393 14T239 92T128 235T86 444H422Q422 370 463 331T571 291Q639 291 680 330T721 446Q721 513 677 556T565 600H518V891H565Q635 891
670 932T705 1028Q705 1094 666 1130T571 1167Q516 1167 477 1130T438 1030H102Q102 1164 165 1265T334 1418T571 1470Q775 1470 907 1349T1040 1038Q1040 850 889 754Q936 721 969 685T1030 583T1057 436Z" />
<glyph unicode="4" glyph-name="four" horiz-adv-x="1138" d="M1085 193H977V0H657V193H53V512L537 1458H905L422 512H657V705H977V512H1085V193Z" />
<glyph unicode="5" glyph-name="five" horiz-adv-x="1138" d="M1049 498Q1049 361 1021 276T913 113Q790 -12 575 -12Q462 -12 373 24T229 115Q192 152 167 193T130 281T112 360T102 444H438Q456 291 575 291Q633 291 670 328Q713 371 713 498Q713 612 678 658T575
705Q540 705 515 696T475 666T453 634T438 600H129V1458H1018V1155H434V930Q461 950 515 968T631 987Q811 987 913 885Q995 803 1022 711T1049 498Z" />
<glyph unicode="6" glyph-name="six" horiz-adv-x="1138" d="M1049 457Q1049 307 982 199T806 40T563 -12T321 39T146 199T78 457Q78 522 99 598T140 719T204 854Q213 872 217 881L498 1458H866L578 887Q606 897 659 897Q728 897 796 868T921 786T1013 647T1049
457ZM713 457Q713 535 670 579T563 623T457 579T414 457Q414 378 456 335T563 291Q628 291 670 334T713 457Z" />
<glyph unicode="7" glyph-name="seven" horiz-adv-x="1138" d="M1069 1155L614 0H246L700 1155H389V926H70V1458H1069V1155Z" />
<glyph unicode="8" glyph-name="eight" horiz-adv-x="1138" d="M1059 436Q1059 326 1021 239T915 98T760 16T569 -12Q467 -12 380 16T225 98T119 239T80 436Q80 488 92 534T120 611T163 673T205 717T244 750Q217 773 198 793T151 849T109 934T94 1038Q94 1172
161 1272T335 1421T569 1470T802 1421T976 1272T1044 1038Q1044 983 1029 935T987 850T941 793T895 750Q920 729 934 717T975 673T1018 612T1046 535T1059 436ZM723 381T723 444T678 552T569 598T461 553T416 444T461 336T569 291T677 336ZM709 970T709 1028T669
1126T569 1167Q511 1167 471 1127T430 1028T470 930T569 889Q628 889 668 929Z" />
<glyph unicode="9" glyph-name="nine" horiz-adv-x="1138" d="M1061 1001Q1061 936 1040 859T998 738T934 603Q926 586 922 578L641 0H272L561 571Q532 561 479 561Q411 561 343 590T218 672T126 811T90 1001Q90 1151 157 1259T333 1418T575 1470Q710 1470 818
1419T993 1259T1061 1001ZM725 1001Q725 1080 683 1123T575 1167Q511 1167 469 1124T426 1001Q426 923 468 880T575 836Q640 836 682 879T725 1001Z" />
<glyph unicode=":" glyph-name="colon" horiz-adv-x="649" d="M532 518H164V887H532V518ZM532 0H164V369H532V0Z" />
<glyph unicode=";" glyph-name="semicolon" horiz-adv-x="649" d="M526 -102L170 -365V356H526V-102ZM532 518H164V887H532V518Z" />
<glyph unicode="&lt;" glyph-name="less" horiz-adv-x="1138" d="M1030 53L109 459V750L1030 1155V801L549 604L1030 408V53Z" />
<glyph unicode="=" glyph-name="equal" horiz-adv-x="1138" d="M1038 696H100V1012H1038V696ZM1038 197H100V512H1038V197Z" />
<glyph unicode="&gt;" glyph-name="greater" horiz-adv-x="1138" d="M1030 459L109 53V408L590 604L109 801V1155L1030 750V459Z" />
<glyph unicode="?" glyph-name="question" horiz-adv-x="1101" d="M1040 1040Q1040 913 936 778L795 600Q758 557 758 504V485H422V532Q422 602 441 654T506 760L649 928Q705 991 705 1042Q705 1098 674 1132T582 1167Q520 1167 490 1132T459 1038H123Q123 1140
159 1223T259 1359T405 1441T582 1470Q706 1470 808 1423T975 1277T1040 1040ZM762 0H418V330H762V0Z" />
<glyph unicode="@" glyph-name="at" horiz-adv-x="1605" d="M1505 -8L1196 0V82Q1146 33 1094 11T965 -12Q811 -12 719 78Q654 140 638 221T621 463Q621 622 637 703T719 848Q812 938 963 938Q1097 938 1186 854V907Q1186 1037 1120 1102Q1055 1167 926 1167H680Q551
1167 485 1102Q446 1062 433 1016T420 907V371Q420 309 436 273T494 195L262 -37Q173 53 137 135T100 350V920Q100 1066 128 1165T231 1339Q306 1414 406 1442T657 1470H948Q1095 1470 1197 1442T1374 1339Q1449 1265 1477 1167T1505 920V-8ZM1186 463Q1186 569
1156 614T1063 659T970 614T940 463Q940 356 970 311T1063 266T1156 311T1186 463Z" />
<glyph unicode="A" glyph-name="A" horiz-adv-x="1337" d="M1337 0H963L895 217H446L375 0H0L530 1458H807L1337 0ZM801 516L678 905L547 516H801Z" />
<glyph unicode="B" glyph-name="B" horiz-adv-x="1337" d="M1237 430Q1237 227 1110 114T782 0H147V1458H752Q975 1458 1096 1344T1217 1036Q1217 978 1200 927T1153 840T1102 784T1057 748Q1083 732 1099 721T1145 680T1191 620T1223 539T1237 430ZM879 398T879
451T848 541T748 578H506V322H748Q816 322 847 360ZM858 969T858 1018T828 1102T729 1137H506V899H729Q797 899 827 934Z" />
<glyph unicode="C" glyph-name="C" horiz-adv-x="1247" d="M1206 463Q1180 306 1101 198T908 39T653 -12Q410 -12 248 152Q205 195 176 248T132 347T110 464T101 578T100 705Q100 721 100 729Q100 933 112 1015Q138 1197 248 1307Q411 1470 653 1470Q794 1470
907 1420T1100 1261T1206 995H842Q822 1067 780 1109T655 1151Q562 1151 514 1090Q485 1052 472 982T459 729T472 477T514 369Q562 307 655 307Q737 307 779 349T842 463H1206Z" />
<glyph unicode="D" glyph-name="D" horiz-adv-x="1333" d="M1233 749T1233 729T1233 662T1234 596T1232 535T1229 472T1221 415T1208 356T1189 302T1162 247T1127 196T1081 143Q938 0 688 0H147V1458H688Q938 1458 1081 1315Q1106 1290 1126 1263T1162 1212T1188
1156T1208 1102T1221 1044T1228 986T1232 924T1233 863T1234 796ZM874 729Q874 905 866 964T836 1057Q781 1139 664 1139H506V319H664Q781 319 836 401Q859 434 866 493T874 729Z" />
<glyph unicode="E" glyph-name="E" horiz-adv-x="1245" d="M1139 0H147V1458H1139V1139H506V895H1047V575H506V319H1139V0Z" />
<glyph unicode="F" glyph-name="F" horiz-adv-x="1220" d="M1139 1139H506V883H1047V563H506V0H147V1458H1139V1139Z" />
<glyph unicode="G" glyph-name="G" horiz-adv-x="1325" d="M1225 637Q1225 457 1192 346T1077 152Q988 61 886 25T653 -12Q410 -12 248 152Q205 195 176 248T132 347T110 464T101 578T100 705Q100 721 100 729Q100 933 112 1015Q138 1197 248 1307Q330 1389 427
1429T653 1470Q762 1470 852 1443T1006 1370T1115 1261T1186 1130T1223 987H862Q841 1072 792 1111T653 1151Q561 1151 512 1087Q484 1050 472 982T459 729T471 476T512 369Q560 307 653 307Q758 307 813 365Q868 420 868 520V541H653V840H1225V637Z" />
<glyph unicode="H" glyph-name="H" horiz-adv-x="1392" d="M1245 0H887V578H506V0H147V1458H506V897H887V1458H1245V0Z" />
<glyph unicode="I" glyph-name="I" horiz-adv-x="653" d="M506 0H147V1458H506V0Z" />
<glyph unicode="J" glyph-name="J" horiz-adv-x="1056" d="M930 500Q930 375 883 275T758 114T583 20T381 -12Q252 -12 162 23T-16 147L219 381Q258 342 292 325T381 307Q468 307 519 357T571 508V1458H930V500Z" />
<glyph unicode="K" glyph-name="K" horiz-adv-x="1378" d="M1378 0H961L625 598L502 457V0H147V1458H502V942L924 1458H1362L864 868L1378 0Z" />
<glyph unicode="L" glyph-name="L" horiz-adv-x="1179" d="M1118 0H147V1458H506V319H1118V0Z" />
<glyph unicode="M" glyph-name="M" horiz-adv-x="1654" d="M1507 0H1149V698L942 338H713L506 698V0H147V1458H500L827 815L1155 1458H1507V0Z" />
<glyph unicode="N" glyph-name="N" horiz-adv-x="1433" d="M1286 0H973L506 733V0H147V1458H461L928 725V1458H1286V0Z" />
<glyph unicode="O" glyph-name="O" horiz-adv-x="1310" d="M1210 738T1210 729T1210 702Q1210 619 1209 576T1201 463T1179 347T1135 248T1063 152Q980 69 883 29T655 -12Q525 -12 428 28T248 152Q205 195 176 248T132 347T110 464T101 578T100 705Q100 721 100
729Q100 933 112 1015Q138 1197 248 1307Q330 1389 427 1429T655 1470T882 1430T1063 1307Q1094 1276 1117 1240T1156 1171T1182 1093T1198 1016T1206 930T1209 846T1210 756Q1210 738 1210 729ZM852 546T852 729T840 980T799 1087Q750 1151 655 1151Q609 1151
572 1133T512 1087Q484 1050 472 982T459 729T471 478T512 373Q563 307 655 307Q748 307 799 373Q827 411 839 478Z" />
<glyph unicode="P" glyph-name="P" horiz-adv-x="1284" d="M1223 1080T1223 989T1190 815T1096 665T939 560T725 520H506V0H147V1458H725Q843 1458 939 1419T1096 1313T1190 1164ZM864 929T864 989T822 1093T709 1137H506V842H709Q779 842 821 885Z" />
<glyph unicode="Q" glyph-name="Q" horiz-adv-x="1310" d="M1233 125L1051 -57L938 55Q822 -12 655 -12Q525 -12 428 28T248 152Q205 195 176 248T132 347T110 464T101 578T100 705Q100 721 100 729Q100 933 112 1015Q138 1197 248 1307Q330 1389 427 1429T655
1470T882 1430T1063 1307Q1094 1276 1117 1240T1156 1171T1182 1093T1198 1016T1206 930T1209 846T1210 756Q1210 738 1210 729Q1210 654 1210 636T1208 554T1201 462T1187 386T1163 302T1126 231L1233 125ZM852 729Q852 912 840 980T799 1087Q750 1151 655 1151Q609
1151 572 1133T512 1087Q484 1050 472 982T459 729T471 478T512 373Q563 307 655 307Q674 307 684 309L592 401L774 584L844 514Q852 612 852 729Z" />
<glyph unicode="R" glyph-name="R" horiz-adv-x="1335" d="M1300 0H885L627 543H506V0H147V1458H725Q843 1458 939 1419T1096 1313T1190 1164T1223 989Q1223 852 1154 755T985 608L1300 0ZM864 929T864 989T822 1093T709 1137H506V842H709Q779 842 821 885Z" />
<glyph unicode="S" glyph-name="S" horiz-adv-x="1214" d="M1126 446Q1126 338 1082 250T960 106T781 19T563 -12Q383 -12 249 30T10 180L240 410Q292 357 380 332T565 307Q774 307 774 438Q774 494 745 524T649 563L473 588Q279 615 180 717Q80 820 80 1010Q80
1213 224 1341T612 1470Q773 1470 892 1429T1104 1296L879 1071Q848 1102 812 1121T736 1147T673 1155T613 1157Q606 1157 602 1157Q515 1157 471 1117T426 1022Q426 983 455 954Q489 920 555 911L731 887Q923 859 1018 766Q1126 661 1126 446Z" />
<glyph unicode="T" glyph-name="T" horiz-adv-x="1198" d="M1137 1139H778V0H420V1139H61V1458H1137V1139Z" />
<glyph unicode="U" glyph-name="U" horiz-adv-x="1351" d="M1229 512Q1229 357 1154 236T952 52T674 -12T397 51T198 236T123 512V1458H481V520Q481 419 532 363T674 307T817 363T870 520V1458H1229V512Z" />
<glyph unicode="V" glyph-name="V" horiz-adv-x="1230" d="M1231 1458L748 0H481L0 1458H371L616 643L858 1458H1231Z" />
<glyph unicode="W" glyph-name="W" horiz-adv-x="1855" d="M1855 1458L1456 0H1163L928 719L692 0H401L0 1458H375L565 688L801 1458H1055L1290 688L1481 1458H1855Z" />
<glyph unicode="X" glyph-name="X" horiz-adv-x="1298" d="M1298 0H889L649 449L410 0H0L455 748L29 1458H436L649 1047L862 1458H1270L844 748L1298 0Z" />
<glyph unicode="Y" glyph-name="Y" horiz-adv-x="1239" d="M1239 1458L799 594V0H440V594L0 1458H391L621 934L848 1458H1239Z" />
<glyph unicode="Z" glyph-name="Z" horiz-adv-x="1112" d="M1051 0H61V279L621 1139H86V1458H1051V1180L489 319H1051V0Z" />
<glyph unicode="[" glyph-name="bracketleft" horiz-adv-x="851" d="M770 -152H147V1610H770V1307H483V152H770V-152Z" />
<glyph unicode="\" glyph-name="backslash" horiz-adv-x="882" d="M883 -152H571L0 1573H311L883 -152Z" />
<glyph unicode="]" glyph-name="bracketright" horiz-adv-x="851" d="M705 -152H82V152H369V1307H82V1610H705V-152Z" />
<glyph unicode="^" glyph-name="asciicircum" horiz-adv-x="1310" d="M1194 768H840L655 1106L471 768H117L500 1475H811L1194 768Z" />
<glyph unicode="_" glyph-name="underscore" horiz-adv-x="1310" d="M1311 -381H0V-160H1311V-381Z" />
<glyph unicode="`" glyph-name="grave" horiz-adv-x="1024" d="M631 1249H428L186 1618H530L631 1249Z" />
<glyph unicode="a" glyph-name="a" horiz-adv-x="1097" d="M989 0H662V90Q608 37 554 14T416 -10Q250 -10 152 88Q55 185 55 346Q55 410 77 466T144 568T261 639T430 666H653V694Q653 769 615 800T487 831Q425 831 389 816T311 758L102 967Q186 1050 274 1082T504
1114Q742 1114 865 1014T989 715V0ZM653 414V442H483Q435 442 406 418T377 354T406 289T487 262T566 270T621 303Q653 334 653 414Z" />
<glyph unicode="b" glyph-name="b" horiz-adv-x="1165" d="M1077 559T1077 551T1077 527Q1077 447 1075 403T1065 292T1034 175T975 88Q873 -12 707 -12Q624 -12 565 13T453 90V0H127V1458H463V1022Q555 1114 709 1114Q873 1114 975 1014Q1012 977 1034 928T1064
811T1075 700T1077 575Q1077 559 1077 551ZM741 497T741 551T739 640T728 711T705 766T665 798T602 811T540 799T499 766T476 711T466 641T463 551T465 462T476 391T499 336T539 304T602 291T664 303T705 336T728 391T738 461Z" />
<glyph unicode="c" glyph-name="c" horiz-adv-x="972" d="M936 129Q795 -12 573 -12Q508 -12 448 -1T318 48T197 144T112 308T78 551T112 793T197 957T317 1054T447 1102T573 1114Q795 1114 936 973L709 745Q675 779 644 795T573 811Q512 811 469 768Q414 710
414 551T469 334Q512 291 573 291Q613 291 644 306T709 356L936 129Z" />
<glyph unicode="d" glyph-name="d" horiz-adv-x="1165" d="M1038 0H713V90Q660 38 601 13T459 -12Q292 -12 190 88Q153 125 131 174T101 291T90 402T88 527Q88 543 88 551T88 575Q88 655 90 699T100 810T131 927T190 1014Q292 1114 457 1114Q610 1114 702 1022V1458H1038V0ZM702
497T702 551T700 640T689 711T666 766T626 798T563 811T501 799T460 766T437 711T427 641T424 551T426 462T437 391T460 336T500 304T563 291T625 303T666 336T689 391T699 461Z" />
<glyph unicode="e" glyph-name="e" horiz-adv-x="1144" d="M1067 442H408Q408 371 460 321T602 270Q684 270 732 291T829 362L1030 162Q940 72 845 30T602 -12Q78 -12 78 551Q78 816 214 965T571 1114Q688 1114 783 1073T939 961T1034 796T1067 592V442ZM735 666Q735
715 717 752Q679 838 571 838T426 752Q408 715 408 666H735Z" />
<glyph unicode="f" glyph-name="f" horiz-adv-x="733" d="M682 801H498V0H162V801H61V1059H162V1155Q162 1215 182 1270T241 1374T348 1452T504 1481H682V1198H565Q498 1198 498 1130V1059H682V801Z" />
<glyph unicode="g" glyph-name="g" horiz-adv-x="1148" d="M1022 80Q1022 -117 885 -243T524 -369Q387 -369 289 -338T111 -225L319 -16Q389 -86 508 -86Q558 -86 595 -71T650 -29T677 25T686 82V162Q595 70 449 70Q288 70 190 168Q122 236 105 324T88 592T105
859T190 1016Q290 1114 451 1114Q532 1114 587 1090T696 1012V1102H1022V80ZM686 552T686 592T685 658T676 717T655 767T616 798T555 811T494 799T456 768T435 717T426 659T424 592T425 526T434 467T455 417T494 386T555 373T616 385T654 416T675 467T684 525Z"
/>
<glyph unicode="h" glyph-name="h" horiz-adv-x="1173" d="M1057 0H721V668Q721 710 708 740T673 784T631 805T592 811T553 805T512 785T477 740T463 668V0H127V1458H463V1012Q565 1114 705 1114Q820 1114 901 1060T1019 918T1057 715V0Z" />
<glyph unicode="i" glyph-name="i" horiz-adv-x="589" d="M463 0H127V1059H463V0ZM463 1214H127V1470H463V1214Z" />
<glyph unicode="j" glyph-name="j" horiz-adv-x="589" d="M463 -43Q463 -103 443 -158T384 -262T277 -340T121 -369H-57V-86H59Q127 -86 127 -18V1059H463V-43ZM463 1214H127V1470H463V1214Z" />
<glyph unicode="k" glyph-name="k" horiz-adv-x="1173" d="M1174 0H758L528 403L463 332V0H127V1458H463V717L760 1102H1163L758 645L1174 0Z" />
<glyph unicode="l" glyph-name="l" horiz-adv-x="698" d="M637 0H459Q371 0 303 29T196 106T137 210T117 326V1458H453V350Q453 283 520 283H637V0Z" />
<glyph unicode="m" glyph-name="m" horiz-adv-x="1792" d="M1675 0H1339V659Q1339 704 1325 736T1288 783T1245 804T1204 811T1164 805T1120 783T1083 736T1069 659V0H733V659Q733 704 719 736T682 783T639 804T598 811T558 805T514 783T477 736T463 659V0H127V1102H455V1012Q504
1061 573 1087T711 1114Q876 1114 979 997Q1051 1060 1123 1087T1290 1114Q1369 1114 1439 1089T1554 1020Q1621 954 1648 877T1675 705V0Z" />
<glyph unicode="n" glyph-name="n" horiz-adv-x="1185" d="M1069 0H733V659Q733 704 719 736T682 783T639 804T598 811T558 805T514 783T477 736T463 659V0H127V1102H455V1012Q504 1061 573 1087T711 1114Q864 1114 958 1020Q1024 955 1046 880T1069 705V0Z" />
<glyph unicode="o" glyph-name="o" horiz-adv-x="1126" d="M1038 551Q1038 387 1012 295T918 129Q785 -12 563 -12Q340 -12 209 129Q140 204 114 295T88 551Q88 713 114 805T209 973Q342 1114 563 1114Q783 1114 918 973Q986 898 1012 806T1038 551ZM702 551Q702
643 693 696T653 780Q623 811 563 811Q504 811 473 780Q443 750 434 697T424 551Q424 458 433 405T473 322Q504 291 563 291Q623 291 653 322Q683 352 692 405T702 551Z" />
<glyph unicode="p" glyph-name="p" horiz-adv-x="1165" d="M1077 559T1077 551T1077 527Q1077 447 1075 403T1065 292T1034 175T975 88Q873 -12 709 -12Q554 -12 463 80V-356H127V1102H453V1012Q505 1064 564 1089T707 1114Q873 1114 975 1014Q1012 977 1034 928T1064
811T1075 700T1077 575Q1077 559 1077 551ZM741 497T741 551T739 640T728 711T705 766T665 798T602 811T540 799T499 766T476 711T466 641T463 551T465 462T476 391T499 336T539 304T602 291T664 303T705 336T728 391T738 461Z" />
<glyph unicode="q" glyph-name="q" horiz-adv-x="1165" d="M1038 -356H702V80Q611 -12 457 -12Q292 -12 190 88Q153 125 131 174T101 291T90 402T88 527Q88 543 88 551T88 575Q88 655 90 699T100 810T131 927T190 1014Q292 1114 459 1114Q542 1114 601 1089T713
1012V1102H1038V-356ZM702 497T702 551T700 640T689 711T666 766T626 798T563 811T501 799T460 766T437 711T427 641T424 551T426 462T437 391T460 336T500 304T563 291T625 303T666 336T689 391T699 461Z" />
<glyph unicode="r" glyph-name="r" horiz-adv-x="972" d="M973 1012L719 754Q689 783 663 797T598 811Q578 811 558 805T515 783T478 735T463 659V0H127V1102H455V1012Q497 1054 566 1084T715 1114Q797 1114 857 1091T973 1012Z" />
<glyph unicode="s" glyph-name="s" horiz-adv-x="1032" d="M977 360Q977 266 939 193T834 76T683 10T500 -12Q424 -12 374 -8T258 10T133 59T20 147L238 365Q270 332 308 312T387 284T451 274T506 272Q527 272 549 275T595 286T634 309T649 344Q649 407 569 414L399
430Q247 445 164 520T80 750Q80 838 117 909T217 1024T357 1091T518 1114Q665 1114 770 1085T952 979L745 772Q679 838 512 838Q457 838 430 818T403 774Q403 766 403 764T406 751T416 734T438 722T475 713L645 696Q812 680 894 590T977 360Z" />
<glyph unicode="t" glyph-name="t" horiz-adv-x="743" d="M662 0H494Q406 0 338 29T231 106T172 210T152 326V801H51V1059H152V1374H487V1059H662V801H487V350Q487 283 555 283H662V0Z" />
<glyph unicode="u" glyph-name="u" horiz-adv-x="1185" d="M1059 0H731V90Q682 41 613 15T475 -12Q323 -12 227 82Q162 147 140 222T117 397V1102H453V442Q453 406 463 378T487 334T521 308T556 295T588 291T619 294T655 308T688 334T713 378T723 442V1102H1059V0Z" />
<glyph unicode="v" glyph-name="v" horiz-adv-x="1067" d="M1067 1102L662 0H406L0 1102H352L535 530L715 1102H1067Z" />
<glyph unicode="w" glyph-name="w" horiz-adv-x="1597" d="M1597 1102L1266 0H997L799 604L600 0H332L0 1102H354L492 530L682 1102H915L1106 530L1243 1102H1597Z" />
<glyph unicode="x" glyph-name="x" horiz-adv-x="1138" d="M1139 0H735L567 279L403 0H0L383 563L14 1102H418L567 836L721 1102H1124L756 563L1139 0Z" />
<glyph unicode="y" glyph-name="y" horiz-adv-x="1052" d="M1069 1102L612 -131Q580 -223 526 -276Q440 -369 279 -369H152V-66H223Q270 -66 294 -50T336 16L367 109L0 1102H352L539 530L717 1102H1069Z" />
<glyph unicode="z" glyph-name="z" horiz-adv-x="1001" d="M920 0H61V248L481 799H86V1102H920V854L492 303H920V0Z" />
<glyph unicode="{" glyph-name="braceleft" horiz-adv-x="1060" d="M979 -152H692Q535 -152 449 -66Q350 33 350 174V418Q350 506 315 541Q278 578 201 578H82V881H201Q279 881 315 918Q350 952 350 1040V1284Q350 1425 449 1524Q535 1610 692 1610H979V1307H836Q748
1307 719 1278Q686 1245 686 1147V934Q686 887 674 850T646 793T605 758T568 739T537 729Q555 724 567 720T605 700T645 665T673 608T686 524V311Q686 213 719 180Q747 152 836 152H979V-152Z" />
<glyph unicode="|" glyph-name="bar" horiz-adv-x="745" d="M541 -152H205V1610H541V-152Z" />
<glyph unicode="}" glyph-name="braceright" horiz-adv-x="1060" d="M979 578H860Q784 578 745 541Q711 506 711 418V174Q711 33 612 -66Q526 -152 369 -152H82V152H225Q313 152 342 180Q375 213 375 311V524Q375 582 391 623T436 686T482 715T524 729Q500 735
483 743T437 772T392 834T375 934V1147Q375 1245 342 1278Q312 1307 225 1307H82V1610H369Q526 1610 612 1524Q711 1425 711 1284V1040Q711 952 745 918Q782 881 860 881H979V578Z" />
<glyph unicode="~" glyph-name="asciitilde" horiz-adv-x="1323" d="M1262 580Q1157 475 1071 429T879 383Q806 383 751 397T627 453Q537 504 455 504Q406 504 366 488T274 420L61 633Q166 738 250 783T440 829Q512 829 568 815T692 760Q779 709 864 709Q913 709
953 725T1044 793L1262 580Z" />
</font>
</defs>
</svg>
